FILE "240p Test Suite v1.12 (2022-05-02)(Urbina, Artemio)(GPLv2)(Track 1 of 5).wav" WAVE
  TRACK 01 AUDIO
    INDEX 01 00:00:00
FILE "240p Test Suite v1.12 (2022-05-02)(Urbina, Artemio)(GPLv2)(Track 2 of 5).iso" BINARY
  TRACK 02 MODE1/2048
    PREGAP 00:03:00
    INDEX 01 00:00:00
FILE "240p Test Suite v1.12 (2022-05-02)(Urbina, Artemio)(GPLv2)(Track 3 of 5).wav" WAVE
  TRACK 03 AUDIO
    PREGAP 00:02:00
    INDEX 01 00:00:00
FILE "240p Test Suite v1.12 (2022-05-02)(Urbina, Artemio)(GPLv2)(Track 4 of 5).wav" WAVE
  TRACK 04 AUDIO
    INDEX 01 00:00:00
FILE "240p Test Suite v1.12 (2022-05-02)(Urbina, Artemio)(GPLv2)(Track 5 of 5).wav" WAVE
  TRACK 05 AUDIO
    INDEX 01 00:00:00